# xmcd
#
# Track frame offsets:
#	150
#	13636
#	27144
#	45093
#	62923
#	79238
#	95025
#	107605
#	126665
#	145444
#	162315
#	175940
#	191962
#	212515
#	230077
#	249131
#	263668
#	278655
#	291323
#
# Disc length: 4123 seconds
#
# Revision: 1
# Processed by: cddbd v1.5.2PL0 Copyright (c) Steve Scherf et al.
# Submitted via: audiograbber 1.83.01
#
DISCID=14101913
DTITLE=Various Artist - Hott Country 157
DYEAR=2009
DGENRE=Country
TTITLE0=Sugarland - It Happens
TTITLE1=Alan Jackson - Sissy's Song
TTITLE2=John Rich - Shuttin' Detroit Down
TTITLE3=Blake Shelton - I'll Just Hold On
TTITLE4=Higgins - Second Hand Car
TTITLE5=Crystal Shawanda - Dawn Of A New Day
TTITLE6=Eric Church - Love Your Love The Most
TTITLE7=Jason Michael Carroll - Where I'm From ( Single Edit )
TTITLE8=Kid Rock - Blue Jeans And A Rosary ( Radio Edit )
TTITLE9=Keith Urban - Kiss A Girl
TTITLE10=Dierks Bentley - Sideways
TTITLE11=Holly Williams - Keep The Change
TTITLE12=Jamey Johnson - High Cost Of Living
TTITLE13=Rankin Family - Never Alone
TTITLE14=Billy Ray Cyrus - Back To Tennessee
TTITLE15=Aaron Pritchett - Hell Bent For Buffalo
TTITLE16=Phil Vassar - Prayer Of A Common Man
TTITLE17=Randy Houser - Boots On
TTITLE18=Dolly Parton and Linda Ronstadt - Those Memories Of You ( 1987 )
EXTD=March157
EXTT0=
EXTT1=
EXTT2=
EXTT3=
EXTT4=
EXTT5=
EXTT6=
EXTT7=
EXTT8=
EXTT9=
EXTT10=
EXTT11=
EXTT12=
EXTT13=
EXTT14=
EXTT15=
EXTT16=
EXTT17=
EXTT18=
PLAYORDER=
